<?xml version="1.0" encoding="windows-1252"?>
<!-- Generator: Adobe Illustrator 19.0.0, SVG Export Plug-In . SVG Version: 6.00 Build 0)  -->
<svg version="1.1" id="Layer_1" xmlns="http://www.w3.org/2000/svg" xmlns:xlink="http://www.w3.org/1999/xlink" x="0px" y="0px" viewBox="0 0 301.397 301.397" style="enable-background:new 0 0 301.397 301.397;" xml:space="preserve">
<g id="XMLID_1400_">
	<g>
		<g>
			<path d="M287.089,93.141L272.96,18.68c-0.698-3.679-3.914-6.341-7.659-6.341H122.15c-3.745,0-6.96,2.662-7.659,6.342     l-12.02,63.344h15.868l10.265-54.096h79.431c-0.898,1.979-1.402,4.174-1.402,6.489c0,8.688,7.043,15.73,15.73,15.73     c8.688,0,15.73-7.043,15.73-15.73c0-2.315-0.504-4.51-1.402-6.489h22.153l11.18,58.918c-2.017-0.17-2.416-0.131-9.328-0.131     l-0.063-13.68c-0.049-9.855-8.107-17.872-17.962-17.872c-4.233,0-36.519,0-40.747,0c-9.855,0-17.912,8.017-17.961,17.872     l-0.044,9.519c3.163,0.723,6.073,2.166,8.535,4.161c3.753,3.041,6.462,7.365,7.416,12.391l13.238,69.758     c0.735,0.673,1.437,1.375,2.125,2.09h29.572v16.399c0,10.394,8.426,18.82,18.82,18.82c10.394,0,18.82-8.426,18.82-18.82v-16.401     h6.12c7.085,0,12.829-5.744,12.829-12.829v-37.132C301.397,109.514,295.75,99.362,287.089,93.141z M264.166,149.177     c-9.812,0-17.767-7.954-17.767-17.767c0-0.044,0.003-0.086,0.003-0.13c0.07-9.752,7.995-17.637,17.764-17.637     c9.812,0,17.767,7.954,17.767,17.767C281.933,141.155,274.033,149.177,264.166,149.177z"/>
			<path d="M201.035,176.027c-0.496-2.614-13.552-71.417-14.13-74.461c-0.698-3.679-3.914-6.341-7.659-6.341H36.095     c-3.745,0-6.96,2.662-7.659,6.342l-14.129,74.461C5.062,182.668,0,193.156,0,203.879v37.132c0,7.085,5.744,12.829,12.829,12.829     h6.12c0,6.818,0,9.688,0,16.399c0,10.394,8.426,18.82,18.82,18.82s18.82-8.426,18.82-18.82c0-6.707,0-9.574,0-16.399h102.165     c0,6.818,0,9.688,0,16.399c0,10.394,8.426,18.82,18.82,18.82s18.82-8.426,18.82-18.82c0-6.707,0-9.574,0-16.399h6.12     c7.084,0,12.829-5.743,12.829-12.829v-37.132C215.342,192.854,210.038,182.495,201.035,176.027z M37.231,232.063     c-9.866,0-17.767-8.02-17.767-17.767c0-9.812,7.954-17.767,17.767-17.767c9.769,0,17.694,7.885,17.764,17.638     c0,0.044,0.003,0.086,0.003,0.129C54.998,224.109,47.043,232.063,37.231,232.063z M156.619,138.048c-4.233,0-36.519,0-40.747,0     c-9.855,0-17.912,8.017-17.961,17.872l-0.063,13.68c-69.179-0.001-64.24-0.057-66.478,0.131l11.18-58.918h79.431     c-0.898,1.979-1.402,4.174-1.402,6.489c0,8.688,7.043,15.73,15.73,15.73c8.688,0,15.73-7.043,15.73-15.73     c0-2.315-0.504-4.51-1.402-6.489h22.153l11.18,58.918c-2.01-0.169-2.404-0.131-9.328-0.131l-0.063-13.68     C174.532,146.065,166.474,138.048,156.619,138.048z M178.111,232.063c-9.812,0-17.767-7.954-17.767-17.767     c0-0.044,0.003-0.086,0.003-0.13c0.07-9.752,7.995-17.637,17.764-17.637c9.812,0,17.767,7.954,17.767,17.767     C195.878,224.041,187.979,232.063,178.111,232.063z"/>
		</g>
	</g>
</g>
<g>
</g>
<g>
</g>
<g>
</g>
<g>
</g>
<g>
</g>
<g>
</g>
<g>
</g>
<g>
</g>
<g>
</g>
<g>
</g>
<g>
</g>
<g>
</g>
<g>
</g>
<g>
</g>
<g>
</g>
</svg>